<svg xmlns="http://www.w3.org/2000/svg" xmlns:xlink="http://www.w3.org/1999/xlink" width="500" zoomAndPan="magnify" viewBox="0 0 375 374.999991" height="500" preserveAspectRatio="xMidYMid meet" version="1.0"><rect x="-37.5" width="450" fill="#ffffff" y="-37.499999" height="449.999989" fill-opacity="1"/><rect x="-37.5" width="450" fill="#ffffff" y="-37.499999" height="449.999989" fill-opacity="1"/><path fill="#ffffff" d="M 371.597656 143.898438 C 371.25 142.78125 370.8125 141.699219 370.289062 140.648438 C 369.769531 139.601562 369.164062 138.601562 368.480469 137.652344 C 367.800781 136.699219 367.046875 135.808594 366.21875 134.976562 C 365.394531 134.148438 364.507812 133.386719 363.5625 132.699219 C 362.613281 132.011719 361.621094 131.402344 360.574219 130.875 C 359.53125 130.34375 358.453125 129.902344 357.335938 129.546875 C 356.222656 129.191406 355.085938 128.925781 353.929688 128.753906 C 352.769531 128.578125 351.605469 128.5 350.4375 128.511719 L 248.679688 128.511719 C 247.730469 128.511719 246.800781 128.367188 245.894531 128.074219 C 244.988281 127.78125 244.148438 127.351562 243.378906 126.792969 C 242.609375 126.234375 241.945312 125.566406 241.382812 124.796875 C 240.824219 124.023438 240.398438 123.1875 240.105469 122.28125 L 208.660156 25.429688 C 208.289062 24.328125 207.835938 23.261719 207.296875 22.230469 C 206.761719 21.199219 206.148438 20.214844 205.457031 19.28125 C 204.765625 18.347656 204.007812 17.46875 203.183594 16.652344 C 202.355469 15.835938 201.46875 15.089844 200.527344 14.414062 C 199.582031 13.734375 198.59375 13.132812 197.554688 12.609375 C 196.519531 12.085938 195.449219 11.644531 194.34375 11.289062 C 193.238281 10.933594 192.109375 10.664062 190.964844 10.484375 C 189.816406 10.304688 188.660156 10.214844 187.5 10.214844 C 186.339844 10.214844 185.183594 10.304688 184.035156 10.484375 C 182.890625 10.664062 181.761719 10.933594 180.65625 11.289062 C 179.550781 11.648438 178.480469 12.085938 177.441406 12.609375 C 176.40625 13.132812 175.417969 13.734375 174.472656 14.414062 C 173.53125 15.089844 172.644531 15.839844 171.816406 16.65625 C 170.992188 17.472656 170.234375 18.347656 169.542969 19.28125 C 168.851562 20.21875 168.238281 21.199219 167.703125 22.230469 C 167.164062 23.261719 166.710938 24.328125 166.339844 25.429688 L 134.894531 122.28125 C 134.601562 123.1875 134.175781 124.023438 133.617188 124.796875 C 133.054688 125.566406 132.390625 126.234375 131.621094 126.792969 C 130.851562 127.351562 130.011719 127.78125 129.105469 128.074219 C 128.199219 128.367188 127.269531 128.511719 126.320312 128.511719 L 24.5625 128.511719 C 23.402344 128.523438 22.25 128.625 21.101562 128.820312 C 19.957031 129.011719 18.835938 129.292969 17.734375 129.660156 C 16.632812 130.027344 15.566406 130.480469 14.535156 131.015625 C 13.503906 131.546875 12.519531 132.160156 11.582031 132.847656 C 10.648438 133.535156 9.769531 134.292969 8.953125 135.117188 C 8.132812 135.941406 7.386719 136.828125 6.703125 137.769531 C 6.023438 138.710938 5.421875 139.699219 4.894531 140.734375 C 4.371094 141.773438 3.925781 142.84375 3.566406 143.949219 C 3.210938 145.054688 2.9375 146.179688 2.753906 147.328125 C 2.570312 148.476562 2.476562 149.632812 2.476562 150.792969 C 2.472656 151.957031 2.558594 153.109375 2.734375 154.257812 C 2.914062 155.410156 3.175781 156.535156 3.53125 157.644531 C 3.882812 158.75 4.320312 159.824219 4.839844 160.863281 C 5.359375 161.902344 5.957031 162.894531 6.632812 163.839844 C 7.308594 164.785156 8.050781 165.675781 8.863281 166.503906 C 9.679688 167.335938 10.550781 168.09375 11.484375 168.789062 L 93.808594 228.652344 C 94.582031 229.210938 95.246094 229.878906 95.808594 230.648438 C 96.371094 231.417969 96.796875 232.257812 97.089844 233.164062 C 97.382812 234.074219 97.53125 235.003906 97.53125 235.957031 C 97.527344 236.910156 97.378906 237.839844 97.082031 238.746094 L 65.636719 335.597656 C 65.292969 336.707031 65.03125 337.835938 64.863281 338.984375 C 64.691406 340.136719 64.609375 341.292969 64.617188 342.453125 C 64.628906 343.617188 64.726562 344.769531 64.917969 345.917969 C 65.105469 347.0625 65.382812 348.1875 65.75 349.292969 C 66.113281 350.394531 66.5625 351.464844 67.09375 352.5 C 67.625 353.53125 68.234375 354.519531 68.917969 355.457031 C 69.601562 356.394531 70.355469 357.273438 71.179688 358.09375 C 72.003906 358.917969 72.882812 359.667969 73.824219 360.351562 C 74.761719 361.035156 75.75 361.640625 76.785156 362.167969 C 77.816406 362.699219 78.886719 363.144531 79.992188 363.507812 C 81.09375 363.867188 82.21875 364.140625 83.367188 364.328125 C 84.511719 364.515625 85.667969 364.609375 86.828125 364.617188 C 87.988281 364.621094 89.144531 364.539062 90.292969 364.363281 C 91.441406 364.191406 92.570312 363.925781 93.675781 363.578125 C 94.785156 363.226562 95.855469 362.792969 96.894531 362.273438 C 97.9375 361.753906 98.929688 361.160156 99.875 360.488281 L 182.199219 300.628906 C 182.96875 300.066406 183.808594 299.640625 184.714844 299.34375 C 185.617188 299.050781 186.546875 298.902344 187.5 298.902344 C 188.453125 298.902344 189.382812 299.050781 190.285156 299.34375 C 191.191406 299.640625 192.03125 300.066406 192.800781 300.628906 L 275.125 360.488281 C 276.070312 361.160156 277.066406 361.757812 278.105469 362.273438 C 279.144531 362.792969 280.21875 363.226562 281.324219 363.578125 C 282.433594 363.925781 283.558594 364.1875 284.707031 364.363281 C 285.855469 364.539062 287.011719 364.621094 288.171875 364.617188 C 289.332031 364.609375 290.488281 364.511719 291.632812 364.328125 C 292.78125 364.140625 293.90625 363.867188 295.007812 363.503906 C 296.113281 363.140625 297.179688 362.695312 298.214844 362.167969 C 299.25 361.636719 300.238281 361.03125 301.175781 360.347656 C 302.117188 359.667969 302.996094 358.914062 303.820312 358.09375 C 304.640625 357.273438 305.394531 356.394531 306.082031 355.453125 C 306.765625 354.515625 307.375 353.53125 307.90625 352.496094 C 308.4375 351.464844 308.886719 350.394531 309.25 349.292969 C 309.613281 348.1875 309.890625 347.0625 310.082031 345.917969 C 310.269531 344.769531 310.371094 343.613281 310.378906 342.453125 C 310.390625 341.289062 310.308594 340.132812 310.136719 338.984375 C 309.96875 337.835938 309.707031 336.707031 309.359375 335.597656 L 277.917969 238.746094 C 277.621094 237.839844 277.472656 236.910156 277.472656 235.953125 C 277.46875 235 277.617188 234.070312 277.910156 233.160156 C 278.207031 232.253906 278.632812 231.414062 279.195312 230.644531 C 279.753906 229.871094 280.421875 229.207031 281.195312 228.648438 L 363.519531 168.789062 C 364.472656 168.109375 365.367188 167.359375 366.199219 166.539062 C 367.035156 165.71875 367.796875 164.835938 368.492188 163.894531 C 369.183594 162.949219 369.796875 161.957031 370.332031 160.914062 C 370.867188 159.875 371.3125 158.796875 371.675781 157.683594 C 372.035156 156.566406 372.308594 155.433594 372.488281 154.277344 C 372.667969 153.117188 372.753906 151.953125 372.746094 150.785156 C 372.742188 149.613281 372.640625 148.449219 372.449219 147.296875 C 372.257812 146.140625 371.972656 145.007812 371.597656 143.898438 Z M 355.738281 158.082031 L 273.417969 217.933594 C 272.472656 218.621094 271.585938 219.375 270.757812 220.199219 C 269.933594 221.027344 269.175781 221.910156 268.488281 222.855469 C 267.800781 223.800781 267.191406 224.792969 266.660156 225.835938 C 266.128906 226.875 265.683594 227.953125 265.320312 229.0625 C 264.960938 230.175781 264.6875 231.308594 264.507812 232.464844 C 264.324219 233.617188 264.234375 234.78125 264.234375 235.949219 C 264.234375 237.117188 264.328125 238.28125 264.511719 239.433594 C 264.699219 240.585938 264.972656 241.71875 265.335938 242.832031 L 296.777344 339.683594 C 297.085938 340.589844 297.246094 341.523438 297.257812 342.484375 C 297.269531 343.445312 297.128906 344.382812 296.839844 345.296875 C 296.550781 346.210938 296.125 347.058594 295.5625 347.835938 C 295.003906 348.617188 294.335938 349.285156 293.558594 349.851562 C 292.785156 350.414062 291.941406 350.84375 291.027344 351.136719 C 290.113281 351.433594 289.179688 351.574219 288.21875 351.570312 C 287.261719 351.5625 286.328125 351.40625 285.417969 351.101562 C 284.507812 350.796875 283.671875 350.355469 282.902344 349.78125 L 200.578125 289.921875 C 199.632812 289.234375 198.644531 288.621094 197.601562 288.089844 C 196.5625 287.558594 195.488281 287.109375 194.378906 286.75 C 193.265625 286.386719 192.136719 286.113281 190.980469 285.929688 C 189.828125 285.746094 188.667969 285.65625 187.5 285.65625 C 186.332031 285.65625 185.171875 285.746094 184.019531 285.929688 C 182.863281 286.113281 181.734375 286.386719 180.621094 286.75 C 179.511719 287.109375 178.4375 287.558594 177.398438 288.089844 C 176.355469 288.621094 175.367188 289.234375 174.421875 289.921875 L 92.097656 349.78125 C 91.328125 350.355469 90.492188 350.796875 89.582031 351.101562 C 88.671875 351.40625 87.738281 351.5625 86.78125 351.570312 C 85.820312 351.574219 84.886719 351.433594 83.972656 351.136719 C 83.058594 350.84375 82.214844 350.414062 81.441406 349.851562 C 80.664062 349.289062 79.996094 348.617188 79.4375 347.835938 C 78.875 347.058594 78.449219 346.210938 78.160156 345.296875 C 77.871094 344.382812 77.730469 343.445312 77.742188 342.484375 C 77.753906 341.527344 77.914062 340.589844 78.222656 339.683594 L 109.664062 242.832031 C 110.027344 241.722656 110.300781 240.589844 110.488281 239.433594 C 110.671875 238.28125 110.765625 237.121094 110.765625 235.949219 C 110.765625 234.78125 110.675781 233.621094 110.492188 232.464844 C 110.3125 231.3125 110.039062 230.179688 109.679688 229.066406 C 109.320312 227.957031 108.871094 226.878906 108.34375 225.839844 C 107.8125 224.796875 107.203125 223.804688 106.515625 222.859375 C 105.828125 221.917969 105.070312 221.03125 104.242188 220.207031 C 103.417969 219.382812 102.53125 218.625 101.585938 217.941406 L 19.261719 158.082031 C 18.488281 157.523438 17.824219 156.855469 17.265625 156.085938 C 16.707031 155.3125 16.277344 154.476562 15.984375 153.566406 C 15.691406 152.660156 15.542969 151.730469 15.542969 150.777344 C 15.542969 149.824219 15.691406 148.894531 15.984375 147.988281 C 16.28125 147.082031 16.707031 146.246094 17.265625 145.472656 C 17.828125 144.703125 18.492188 144.035156 19.261719 143.476562 C 20.03125 142.917969 20.871094 142.488281 21.777344 142.195312 C 22.683594 141.898438 23.609375 141.753906 24.5625 141.753906 L 126.320312 141.753906 C 127.488281 141.753906 128.648438 141.664062 129.800781 141.484375 C 130.953125 141.300781 132.085938 141.03125 133.199219 140.671875 C 134.308594 140.3125 135.386719 139.867188 136.425781 139.335938 C 137.46875 138.804688 138.460938 138.199219 139.40625 137.511719 C 140.347656 136.824219 141.234375 136.066406 142.058594 135.238281 C 142.886719 134.414062 143.640625 133.527344 144.324219 132.578125 C 145.011719 131.632812 145.617188 130.640625 146.148438 129.597656 C 146.675781 128.554688 147.121094 127.476562 147.476562 126.367188 L 178.925781 29.515625 C 179.207031 28.597656 179.628906 27.75 180.183594 26.96875 C 180.738281 26.1875 181.402344 25.511719 182.171875 24.941406 C 182.945312 24.371094 183.785156 23.9375 184.695312 23.636719 C 185.605469 23.339844 186.542969 23.1875 187.5 23.1875 C 188.457031 23.1875 189.394531 23.339844 190.304688 23.636719 C 191.214844 23.9375 192.054688 24.371094 192.828125 24.941406 C 193.597656 25.511719 194.261719 26.183594 194.816406 26.96875 C 195.371094 27.75 195.792969 28.597656 196.074219 29.515625 L 227.523438 126.367188 C 227.878906 127.476562 228.324219 128.554688 228.851562 129.597656 C 229.382812 130.640625 229.988281 131.632812 230.675781 132.582031 C 231.359375 133.527344 232.113281 134.414062 232.941406 135.238281 C 233.765625 136.066406 234.652344 136.824219 235.59375 137.511719 C 236.539062 138.199219 237.535156 138.804688 238.574219 139.335938 C 239.613281 139.867188 240.691406 140.3125 241.800781 140.671875 C 242.914062 141.03125 244.046875 141.300781 245.199219 141.484375 C 246.351562 141.664062 247.511719 141.753906 248.679688 141.753906 L 350.4375 141.753906 C 351.394531 141.738281 352.332031 141.875 353.246094 142.164062 C 354.164062 142.449219 355.007812 142.871094 355.789062 143.429688 C 356.570312 143.988281 357.242188 144.65625 357.808594 145.429688 C 358.375 146.203125 358.804688 147.046875 359.101562 147.960938 C 359.398438 148.875 359.546875 149.808594 359.542969 150.769531 C 359.539062 151.730469 359.386719 152.664062 359.082031 153.574219 C 358.78125 154.484375 358.34375 155.324219 357.773438 156.097656 C 357.199219 156.867188 356.523438 157.527344 355.738281 158.082031 Z M 355.738281 158.082031 " fill-opacity="1" fill-rule="nonzero"/><path fill="#ffffff" d="M 187.5 136.101562 C 185.515625 136.105469 183.535156 136.203125 181.558594 136.398438 C 179.582031 136.597656 177.621094 136.890625 175.671875 137.277344 C 173.726562 137.667969 171.800781 138.152344 169.902344 138.730469 C 168.003906 139.308594 166.136719 139.976562 164.300781 140.738281 C 162.46875 141.5 160.675781 142.347656 158.925781 143.285156 C 157.171875 144.222656 155.472656 145.246094 153.820312 146.351562 C 152.171875 147.453125 150.578125 148.636719 149.042969 149.898438 C 147.507812 151.160156 146.039062 152.492188 144.636719 153.898438 C 143.230469 155.300781 141.898438 156.773438 140.640625 158.308594 C 139.378906 159.84375 138.199219 161.4375 137.09375 163.089844 C 135.988281 164.742188 134.96875 166.445312 134.03125 168.195312 C 133.097656 169.949219 132.246094 171.742188 131.488281 173.578125 C 130.726562 175.414062 130.054688 177.28125 129.476562 179.183594 C 128.902344 181.085938 128.417969 183.007812 128.027344 184.957031 C 127.640625 186.90625 127.347656 188.871094 127.148438 190.847656 C 126.953125 192.824219 126.855469 194.808594 126.851562 196.792969 C 130.183594 277.320312 244.828125 277.296875 248.148438 196.792969 C 248.144531 194.808594 248.046875 192.824219 247.851562 190.847656 C 247.652344 188.871094 247.359375 186.90625 246.972656 184.957031 C 246.582031 183.007812 246.097656 181.085938 245.519531 179.183594 C 244.945312 177.28125 244.273438 175.414062 243.511719 173.578125 C 242.753906 171.742188 241.902344 169.949219 240.96875 168.195312 C 240.03125 166.445312 239.011719 164.742188 237.90625 163.089844 C 236.800781 161.4375 235.621094 159.84375 234.359375 158.308594 C 233.101562 156.773438 231.769531 155.300781 230.363281 153.898438 C 228.960938 152.492188 227.492188 151.160156 225.957031 149.898438 C 224.421875 148.636719 222.828125 147.453125 221.179688 146.351562 C 219.527344 145.246094 217.828125 144.222656 216.074219 143.285156 C 214.324219 142.347656 212.53125 141.5 210.699219 140.738281 C 208.863281 139.976562 206.996094 139.308594 205.097656 138.730469 C 203.199219 138.152344 201.273438 137.667969 199.328125 137.277344 C 197.378906 136.890625 195.417969 136.597656 193.441406 136.398438 C 191.464844 136.203125 189.484375 136.105469 187.5 136.101562 Z M 187.5 244.253906 C 185.949219 244.25 184.398438 244.175781 182.855469 244.019531 C 181.308594 243.867188 179.773438 243.636719 178.253906 243.332031 C 176.730469 243.027344 175.226562 242.648438 173.742188 242.199219 C 172.253906 241.746094 170.796875 241.222656 169.363281 240.625 C 167.925781 240.03125 166.527344 239.367188 165.15625 238.632812 C 163.789062 237.902344 162.457031 237.101562 161.167969 236.238281 C 159.878906 235.375 158.632812 234.449219 157.433594 233.464844 C 156.230469 232.476562 155.082031 231.4375 153.984375 230.335938 C 152.886719 229.238281 151.84375 228.089844 150.859375 226.886719 C 149.875 225.6875 148.953125 224.441406 148.089844 223.148438 C 147.226562 221.855469 146.429688 220.527344 145.695312 219.15625 C 144.964844 217.785156 144.300781 216.382812 143.703125 214.949219 C 143.109375 213.511719 142.585938 212.050781 142.136719 210.566406 C 141.683594 209.078125 141.304688 207.574219 141 206.050781 C 140.695312 204.527344 140.46875 202.992188 140.316406 201.445312 C 140.160156 199.898438 140.082031 198.347656 140.082031 196.792969 C 142.570312 133.886719 232.4375 133.90625 234.917969 196.796875 C 234.917969 198.347656 234.839844 199.898438 234.683594 201.445312 C 234.53125 202.992188 234.304688 204.527344 234 206.050781 C 233.695312 207.574219 233.316406 209.078125 232.863281 210.566406 C 232.414062 212.050781 231.890625 213.511719 231.296875 214.949219 C 230.699219 216.382812 230.035156 217.785156 229.304688 219.15625 C 228.570312 220.527344 227.773438 221.855469 226.910156 223.148438 C 226.046875 224.441406 225.125 225.6875 224.140625 226.886719 C 223.152344 228.089844 222.113281 229.238281 221.015625 230.335938 C 219.917969 231.4375 218.769531 232.476562 217.566406 233.464844 C 216.367188 234.449219 215.121094 235.375 213.832031 236.238281 C 212.542969 237.101562 211.210938 237.902344 209.84375 238.632812 C 208.472656 239.367188 207.074219 240.03125 205.636719 240.625 C 204.203125 241.222656 202.746094 241.746094 201.257812 242.199219 C 199.773438 242.648438 198.269531 243.027344 196.746094 243.332031 C 195.226562 243.636719 193.691406 243.867188 192.144531 244.019531 C 190.601562 244.175781 189.050781 244.25 187.5 244.253906 Z M 187.5 244.253906 " fill-opacity="1" fill-rule="nonzero"/><path fill="#ffffff" d="M 210.820312 176.84375 L 174.804688 201.734375 L 166.183594 186.429688 C 165.964844 186.058594 165.714844 185.710938 165.429688 185.390625 C 165.144531 185.066406 164.832031 184.773438 164.492188 184.511719 C 164.148438 184.25 163.785156 184.023438 163.398438 183.832031 C 163.015625 183.640625 162.613281 183.488281 162.199219 183.375 C 161.78125 183.265625 161.359375 183.191406 160.929688 183.164062 C 160.5 183.132812 160.074219 183.144531 159.648438 183.199219 C 159.21875 183.25 158.800781 183.34375 158.394531 183.480469 C 157.984375 183.617188 157.59375 183.789062 157.21875 184 C 156.84375 184.210938 156.492188 184.457031 156.164062 184.738281 C 155.839844 185.019531 155.542969 185.328125 155.273438 185.664062 C 155.007812 186.003906 154.777344 186.363281 154.582031 186.746094 C 154.382812 187.128906 154.226562 187.527344 154.109375 187.941406 C 153.988281 188.355469 153.910156 188.777344 153.875 189.207031 C 153.839844 189.636719 153.84375 190.066406 153.890625 190.492188 C 153.9375 190.921875 154.027344 191.339844 154.15625 191.75 C 154.285156 192.164062 154.453125 192.558594 154.660156 192.933594 L 166.839844 214.554688 C 167.070312 214.953125 167.335938 215.324219 167.640625 215.667969 C 167.945312 216.007812 168.28125 216.316406 168.648438 216.589844 C 169.019531 216.867188 169.410156 217.097656 169.828125 217.289062 C 170.242188 217.484375 170.675781 217.632812 171.121094 217.734375 C 171.570312 217.835938 172.023438 217.894531 172.480469 217.902344 C 172.941406 217.914062 173.394531 217.875 173.847656 217.789062 C 174.296875 217.707031 174.734375 217.578125 175.160156 217.402344 C 175.582031 217.226562 175.984375 217.007812 176.363281 216.75 L 218.339844 187.742188 C 218.6875 187.492188 219.007812 187.210938 219.300781 186.898438 C 219.59375 186.582031 219.855469 186.246094 220.082031 185.878906 C 220.3125 185.515625 220.5 185.132812 220.652344 184.734375 C 220.808594 184.332031 220.921875 183.917969 220.992188 183.496094 C 221.066406 183.074219 221.097656 182.648438 221.089844 182.21875 C 221.078125 181.789062 221.027344 181.363281 220.9375 180.945312 C 220.84375 180.527344 220.710938 180.121094 220.539062 179.726562 C 220.371094 179.332031 220.160156 178.957031 219.917969 178.605469 C 219.675781 178.25 219.398438 177.925781 219.089844 177.625 C 218.785156 177.324219 218.449219 177.058594 218.09375 176.824219 C 217.734375 176.589844 217.355469 176.390625 216.957031 176.230469 C 216.558594 176.066406 216.148438 175.945312 215.726562 175.863281 C 215.308594 175.785156 214.882812 175.742188 214.453125 175.746094 C 214.023438 175.746094 213.597656 175.789062 213.179688 175.871094 C 212.757812 175.957031 212.347656 176.078125 211.953125 176.242188 C 211.554688 176.40625 211.179688 176.605469 210.820312 176.84375 Z M 210.820312 176.84375 " fill-opacity="1" fill-rule="nonzero"/></svg>