<svg xmlns="http://www.w3.org/2000/svg" xmlns:xlink="http://www.w3.org/1999/xlink" width="45" zoomAndPan="magnify" viewBox="0 0 375 374.999991" height="45" preserveAspectRatio="xMidYMid meet" version="1.0"><defs><clipPath id="1e3e57ca8d"><path d="M 4.414062 4.414062 L 370.414062 4.414062 L 370.414062 370.414062 L 4.414062 370.414062 Z M 4.414062 4.414062 " clip-rule="nonzero"/></clipPath></defs><g clip-path="url(#1e3e57ca8d)"><path fill="#ffffff" d="M 187.414062 4.414062 C 86.34375 4.414062 4.414062 86.34375 4.414062 187.414062 C 4.414062 288.484375 86.34375 370.414062 187.414062 370.414062 C 288.484375 370.414062 370.414062 288.484375 370.414062 187.414062 C 370.414062 86.34375 288.484375 4.414062 187.414062 4.414062 Z M 222.367188 295.277344 C 216.769531 296.355469 214.773438 292.914062 214.773438 289.949219 C 214.773438 286.308594 214.921875 274.375 214.921875 259.554688 C 214.921875 249.214844 211.386719 242.460938 207.433594 239.039062 C 232.011719 236.292969 257.832031 226.925781 257.832031 184.359375 C 257.832031 172.261719 253.570312 162.363281 246.488281 154.621094 C 247.621094 151.820312 251.410156 140.550781 245.390625 125.304688 C 245.390625 125.304688 236.148438 122.320312 215.066406 136.667969 C 206.246094 134.21875 196.804688 132.992188 187.433594 132.9375 C 178.046875 132.992188 168.601562 134.21875 159.800781 136.667969 C 138.71875 122.339844 129.460938 125.304688 129.460938 125.304688 C 123.457031 140.566406 127.246094 151.820312 128.378906 154.621094 C 121.316406 162.363281 117.015625 172.261719 117.015625 184.359375 C 117.015625 226.816406 142.78125 236.3125 167.285156 239.113281 C 164.136719 241.875 161.28125 246.761719 160.277344 253.917969 C 153.980469 256.753906 138.003906 261.640625 128.160156 244.710938 C 128.160156 244.710938 122.339844 234.082031 111.269531 233.292969 C 111.269531 233.292969 100.492188 233.148438 110.519531 240.027344 C 110.519531 240.027344 117.746094 243.429688 122.761719 256.242188 C 122.761719 256.242188 129.238281 277.800781 159.945312 271.101562 C 160 280.34375 160.09375 287.316406 160.09375 289.949219 C 160.09375 292.878906 158.082031 296.300781 152.554688 295.292969 C 108.6875 280.636719 77.066406 239.113281 77.066406 190.160156 C 77.066406 128.945312 126.476562 79.355469 187.433594 79.355469 C 248.390625 79.355469 297.800781 128.964844 297.800781 190.160156 C 297.800781 239.09375 266.214844 280.597656 222.386719 295.277344 Z M 222.367188 295.277344 " fill-opacity="1" fill-rule="nonzero"/></g></svg>