<svg xmlns="http://www.w3.org/2000/svg" xmlns:xlink="http://www.w3.org/1999/xlink" width="500" zoomAndPan="magnify" viewBox="0 0 375 374.999991" height="500" preserveAspectRatio="xMidYMid meet" version="1.0"><defs><clipPath id="ad394e0ec6"><path d="M 0 280 L 375 280 L 375 329.71875 L 0 329.71875 Z M 0 280 " clip-rule="nonzero"/></clipPath><clipPath id="b4ecfe756e"><path d="M 0 45.46875 L 142 45.46875 L 142 188 L 0 188 Z M 0 45.46875 " clip-rule="nonzero"/></clipPath></defs><rect x="-37.5" width="450" fill="#ffffff" y="-37.499999" height="449.999989" fill-opacity="1"/><rect x="-37.5" width="450" fill="#ffffff" y="-37.499999" height="449.999989" fill-opacity="1"/><path fill="#ffffff" d="M 263.839844 258.269531 L 110.5 258.269531 C 107.425781 258.269531 105.007812 255.851562 105.007812 252.773438 L 105.007812 230.128906 C 105.007812 227.054688 107.425781 224.636719 110.5 224.636719 C 113.578125 224.636719 115.992188 227.054688 115.992188 230.128906 L 115.992188 247.496094 L 259.007812 247.496094 L 259.007812 230.128906 C 259.007812 227.054688 261.421875 224.636719 264.5 224.636719 C 267.574219 224.636719 269.992188 227.054688 269.992188 230.128906 L 269.992188 252.773438 C 269.332031 255.851562 266.914062 258.269531 263.839844 258.269531 Z M 263.839844 258.269531 " fill-opacity="1" fill-rule="evenodd"/><path fill="#ffffff" d="M 187.171875 236.945312 C 185.414062 236.945312 183.4375 236.066406 182.558594 234.308594 L 149.164062 177.152344 C 148.285156 175.613281 148.285156 173.414062 149.164062 171.65625 C 150.042969 170.117188 151.800781 168.796875 153.777344 168.796875 L 164.980469 168.796875 L 164.980469 117.136719 C 164.980469 114.0625 167.398438 111.644531 170.472656 111.644531 L 203.867188 111.644531 C 206.941406 111.644531 209.359375 114.0625 209.359375 117.136719 L 209.359375 169.238281 L 221 169.238281 C 222.757812 169.238281 224.515625 170.117188 225.613281 171.875 C 226.492188 173.414062 226.492188 175.613281 225.613281 177.371094 L 191.785156 234.308594 C 190.90625 236.066406 189.367188 236.945312 187.171875 236.945312 Z M 163.226562 179.789062 L 187.390625 221.117188 L 211.773438 179.789062 L 203.867188 179.789062 C 200.789062 179.789062 198.375 177.371094 198.375 174.515625 L 198.375 122.195312 L 175.527344 122.195312 L 175.527344 174.292969 C 175.527344 177.371094 173.109375 179.570312 170.035156 179.570312 L 163.226562 179.570312 Z M 163.226562 179.789062 " fill-opacity="1" fill-rule="evenodd"/><path fill="#ffffff" d="M 341.386719 291.242188 L 32.953125 291.242188 C 29.878906 291.242188 27.460938 288.824219 27.460938 285.746094 L 27.460938 170.117188 C 27.460938 167.039062 29.878906 164.621094 32.953125 164.621094 C 35.808594 164.621094 38.445312 167.039062 38.445312 170.117188 L 38.445312 280.691406 L 336.335938 280.691406 L 336.335938 92.296875 C 336.335938 90.539062 334.796875 89 333.261719 89 L 120.605469 89 C 117.53125 89 115.113281 86.582031 115.113281 83.503906 C 115.113281 80.425781 117.53125 78.007812 120.605469 78.007812 L 333.261719 78.007812 C 340.949219 78.007812 346.878906 84.164062 346.878906 92.078125 L 346.878906 285.746094 C 346.878906 289.042969 344.464844 291.242188 341.386719 291.242188 Z M 341.386719 291.242188 " fill-opacity="1" fill-rule="evenodd"/><g clip-path="url(#ad394e0ec6)"><path fill="#ffffff" d="M 349.957031 329.714844 L 24.386719 329.714844 C 10.984375 329.714844 0.21875 318.722656 0.21875 305.53125 L 0.21875 285.96875 C 0.21875 283.109375 2.636719 280.691406 5.710938 280.691406 L 369.507812 280.691406 C 372.582031 280.691406 375 283.109375 375 285.96875 L 375 305.53125 C 374.339844 318.941406 363.355469 329.714844 349.957031 329.714844 Z M 10.542969 291.242188 L 10.542969 305.53125 C 10.542969 312.785156 16.695312 318.941406 23.945312 318.941406 L 349.957031 318.941406 C 357.644531 318.941406 363.578125 312.785156 363.578125 305.53125 L 363.578125 291.242188 Z M 10.542969 291.242188 " fill-opacity="1" fill-rule="evenodd"/></g><path fill="#ffffff" d="M 231.546875 311.6875 L 142.792969 311.6875 C 137.523438 311.6875 133.347656 307.289062 133.347656 302.234375 L 133.347656 285.96875 C 133.347656 283.109375 135.765625 280.691406 138.839844 280.691406 L 236.160156 280.691406 C 239.234375 280.691406 241.652344 283.109375 241.652344 285.96875 L 241.652344 302.234375 C 241.433594 307.289062 237.039062 311.6875 231.546875 311.6875 Z M 143.671875 300.914062 L 230.449219 300.914062 L 230.449219 291.460938 L 143.671875 291.460938 Z M 143.671875 300.914062 " fill-opacity="1" fill-rule="evenodd"/><g clip-path="url(#b4ecfe756e)"><path fill="#ffffff" d="M 81.503906 187.484375 L 59.753906 187.484375 C 56.898438 187.484375 54.703125 185.503906 54.480469 182.867188 L 51.84375 164.183594 C 51.40625 164.183594 51.1875 163.960938 50.527344 163.960938 L 35.589844 175.171875 C 33.390625 176.710938 30.535156 176.710938 28.558594 174.515625 L 12.742188 159.125 C 10.984375 157.148438 10.542969 154.289062 12.082031 152.089844 L 23.726562 136.921875 C 23.507812 136.484375 23.507812 136.265625 23.066406 135.605469 L 4.613281 132.964844 C 1.757812 132.527344 0 130.109375 0 127.691406 L 0 105.488281 C 0 102.851562 1.757812 100.652344 4.613281 100.210938 L 23.066406 97.574219 C 23.507812 97.355469 23.507812 96.914062 23.726562 96.253906 L 12.523438 81.085938 C 10.984375 78.886719 10.984375 76.03125 13.179688 74.050781 L 29 58.664062 C 30.753906 56.6875 33.832031 56.464844 35.808594 58.003906 L 50.746094 69.214844 C 51.1875 68.996094 51.40625 68.996094 52.066406 68.996094 L 54.703125 50.089844 C 55.140625 47.234375 57.558594 45.472656 59.972656 45.472656 L 81.941406 45.472656 C 84.578125 45.472656 86.773438 47.234375 86.996094 50.089844 L 89.851562 68.996094 C 90.070312 68.996094 90.289062 69.214844 90.949219 69.214844 L 105.886719 58.003906 C 108.085938 56.464844 111.160156 56.464844 112.917969 58.664062 L 128.515625 74.050781 C 130.273438 76.03125 130.492188 78.886719 128.953125 81.085938 L 117.75 96.253906 C 118.191406 96.695312 118.191406 97.355469 118.410156 97.574219 L 136.863281 100.210938 C 139.71875 100.652344 141.476562 103.070312 141.476562 105.488281 L 141.476562 127.691406 C 141.476562 130.546875 139.71875 132.527344 136.863281 132.964844 L 118.410156 135.605469 C 117.96875 136.042969 117.96875 136.265625 117.75 136.921875 L 128.953125 152.089844 C 130.492188 154.289062 130.273438 157.148438 128.515625 159.125 L 112.917969 174.515625 C 111.160156 176.492188 108.085938 176.710938 105.886719 175.171875 L 90.949219 163.960938 C 90.730469 164.183594 90.289062 164.183594 89.851562 164.183594 L 86.996094 182.867188 C 86.335938 185.503906 84.359375 187.484375 81.503906 187.484375 Z M 64.148438 176.710938 L 76.890625 176.710938 L 79.746094 159.347656 C 79.964844 157.148438 81.503906 155.828125 83.480469 155.167969 C 85.238281 154.507812 87.433594 153.851562 89.191406 152.75 C 90.949219 151.871094 93.144531 152.089844 94.683594 153.191406 L 108.304688 163.742188 L 117.53125 154.507812 L 107.207031 140.441406 C 105.886719 138.683594 105.667969 136.484375 106.765625 134.726562 C 107.425781 133.40625 108.304688 131.648438 108.964844 130.109375 L 109.621094 129.007812 C 110.0625 127.03125 112.039062 125.933594 113.796875 125.492188 L 130.929688 123.074219 L 130.929688 110.324219 L 113.796875 107.90625 C 112.039062 107.6875 110.0625 106.367188 109.621094 104.609375 C 108.964844 102.851562 108.085938 100.652344 107.207031 98.894531 C 106.105469 96.914062 106.105469 94.9375 107.425781 92.957031 L 117.75 78.886719 L 108.742188 69.875 L 94.902344 80.207031 C 93.367188 81.527344 91.386719 81.746094 89.410156 80.867188 C 87.652344 79.988281 85.457031 78.886719 83.699219 78.449219 C 81.941406 77.789062 80.402344 76.25 79.964844 74.050781 L 77.328125 56.6875 L 64.148438 56.6875 L 61.511719 74.050781 C 61.070312 76.25 59.753906 77.789062 57.777344 78.449219 C 56.019531 78.886719 53.824219 79.546875 52.066406 80.867188 C 50.308594 81.746094 48.109375 81.527344 46.574219 80.207031 L 32.511719 69.875 L 23.507812 78.886719 L 34.050781 92.957031 C 35.367188 94.9375 35.589844 96.914062 34.492188 98.894531 C 33.390625 100.652344 32.511719 102.851562 31.855469 104.609375 C 31.414062 106.367188 29.4375 107.6875 27.679688 107.90625 L 10.542969 110.324219 L 10.542969 123.074219 L 27.679688 125.492188 C 29.4375 125.933594 30.976562 127.03125 31.855469 129.007812 L 32.511719 130.109375 C 33.171875 132.085938 33.832031 133.40625 34.710938 134.945312 C 35.589844 136.921875 35.589844 139.339844 34.492188 140.878906 L 23.726562 154.730469 L 32.953125 163.960938 L 46.792969 153.628906 C 48.332031 152.3125 50.527344 152.089844 52.285156 152.972656 C 54.261719 153.851562 56.238281 154.730469 58.214844 155.390625 C 59.972656 156.046875 61.511719 157.585938 61.730469 159.785156 Z M 64.148438 176.710938 " fill-opacity="1" fill-rule="evenodd"/></g><path fill="#ffffff" d="M 70.519531 145.277344 C 54.703125 145.277344 41.960938 132.527344 41.960938 116.480469 C 41.960938 100.652344 54.703125 87.902344 70.519531 87.902344 C 86.335938 87.902344 99.296875 100.652344 99.296875 116.480469 C 99.296875 132.527344 86.335938 145.277344 70.519531 145.277344 Z M 70.519531 98.894531 C 60.851562 98.894531 52.722656 106.808594 52.722656 116.699219 C 52.722656 126.8125 60.632812 134.945312 70.519531 134.945312 C 80.625 134.945312 88.53125 126.8125 88.53125 116.699219 C 88.53125 107.027344 80.402344 98.894531 70.519531 98.894531 Z M 70.519531 98.894531 " fill-opacity="1" fill-rule="evenodd"/></svg>