<svg xmlns="http://www.w3.org/2000/svg" width="45" height="45" version="1.0" viewBox="0 0 375 375">
  <path fill="#ffffff" d="M343.672 0H31.516C14.258 0 .375 14.07.375 31.14v312.72c0 17.257 14.07 31.14 31.14 31.14h311.97c17.257 0 31.14-14.07 31.14-31.14V31.14C374.813 14.07 360.93 0 343.672 0Zm-232.43 309.344h-55.34V143.133h55.34ZM83.48 123.063c-17.449 0-31.515-14.07-31.515-31.516 0-17.45 14.066-31.516 31.515-31.516 17.446 0 31.516 14.067 31.516 31.516 0 17.445-14.07 31.516-31.516 31.516Zm235.993 186.28h-55.528l-1.312-98.675s1.312-26.262-27.39-26.074c-28.704.187-32.641 26.074-32.641 26.074v98.676h-55.903V143.133h53.653v22.887s2.25-7.504 14.632-16.32c12.38-8.817 32.828-10.692 41.645-10.317 8.816.375 20.824-1.125 40.894 12.754 21.575 14.82 22.137 53.652 22.137 53.652Zm0 0"/>
</svg>