<svg xmlns="http://www.w3.org/2000/svg" xmlns:xlink="http://www.w3.org/1999/xlink" width="500" zoomAndPan="magnify" viewBox="0 0 375 374.999991" height="500" preserveAspectRatio="xMidYMid meet" version="1.0"><defs><clipPath id="86b4b4d935"><path d="M 298 262 L 375 262 L 375 339.75 L 298 339.75 Z M 298 262 " clip-rule="nonzero"/></clipPath><clipPath id="bb326bc27b"><path d="M 2.316406 37.5 L 264 37.5 L 264 339.75 L 2.316406 339.75 Z M 2.316406 37.5 " clip-rule="nonzero"/></clipPath></defs><rect x="-37.5" width="450" fill="#ffffff" y="-37.499999" height="449.999989" fill-opacity="1"/><rect x="-37.5" width="450" fill="#ffffff" y="-37.499999" height="449.999989" fill-opacity="1"/><path fill="#ffffff" d="M 306.835938 275.648438 C 305.800781 275.648438 304.761719 275.25 303.972656 274.460938 L 288.945312 259.417969 C 287.367188 257.835938 287.367188 255.269531 288.945312 253.683594 C 290.527344 252.101562 293.09375 252.101562 294.675781 253.683594 L 309.699219 268.726562 C 311.28125 270.308594 311.28125 272.875 309.699219 274.460938 C 308.910156 275.25 307.871094 275.648438 306.835938 275.648438 Z M 306.835938 275.648438 " fill-opacity="1" fill-rule="nonzero"/><g clip-path="url(#86b4b4d935)"><path fill="#ffffff" d="M 355.214844 339.757812 C 349.929688 339.757812 344.976562 337.707031 341.257812 333.992188 L 303.972656 296.664062 C 300.257812 292.945312 298.210938 287.984375 298.210938 282.695312 C 298.210938 277.40625 300.257812 272.445312 303.972656 268.726562 C 311.667969 261.027344 324.183594 261.027344 331.878906 268.726562 L 369.167969 306.054688 C 372.882812 309.773438 374.925781 314.734375 374.925781 320.023438 C 374.925781 325.3125 372.882812 330.269531 369.167969 333.992188 C 365.453125 337.707031 360.496094 339.757812 355.214844 339.757812 Z M 317.925781 271.054688 C 314.945312 271.054688 311.96875 272.1875 309.699219 274.460938 C 305.164062 279 305.164062 286.390625 309.699219 290.929688 L 346.988281 328.257812 C 351.523438 332.796875 358.902344 332.796875 363.4375 328.257812 C 365.625 326.070312 366.828125 323.144531 366.828125 320.019531 C 366.828125 316.898438 365.625 313.972656 363.441406 311.785156 L 326.152344 274.460938 C 323.886719 272.1875 320.90625 271.054688 317.925781 271.054688 Z M 317.925781 271.054688 " fill-opacity="1" fill-rule="nonzero"/></g><path fill="#ffffff" d="M 216.273438 272.109375 C 193 272.109375 171.117188 263.035156 154.65625 246.558594 C 138.199219 230.082031 129.132812 208.175781 129.132812 184.875 C 129.132812 161.574219 138.199219 139.667969 154.65625 123.191406 C 171.117188 106.714844 193 97.644531 216.273438 97.644531 C 239.550781 97.644531 261.433594 106.71875 277.894531 123.191406 C 294.351562 139.667969 303.417969 161.574219 303.417969 184.875 C 303.417969 208.175781 294.351562 230.082031 277.894531 246.558594 C 261.433594 263.035156 239.550781 272.109375 216.273438 272.109375 Z M 216.273438 105.75 C 195.164062 105.75 175.3125 113.980469 160.382812 128.925781 C 145.453125 143.871094 137.234375 163.738281 137.234375 184.875 C 137.234375 206.007812 145.453125 225.878906 160.382812 240.824219 C 175.3125 255.769531 195.164062 264 216.273438 264 C 237.386719 264 257.238281 255.769531 272.167969 240.824219 C 287.09375 225.878906 295.316406 206.007812 295.316406 184.875 C 295.316406 163.738281 287.09375 143.871094 272.167969 128.925781 C 257.238281 113.980469 237.386719 105.75 216.273438 105.75 Z M 216.273438 105.75 " fill-opacity="1" fill-rule="nonzero"/><path fill="#ffffff" d="M 216.273438 248.410156 C 200.015625 248.410156 183.753906 242.214844 171.375 229.824219 C 146.617188 205.039062 146.617188 164.710938 171.375 139.925781 C 196.132812 115.140625 236.417969 115.140625 261.175781 139.925781 C 285.9375 164.710938 285.9375 205.039062 261.175781 229.824219 C 248.796875 242.214844 232.535156 248.410156 216.273438 248.410156 Z M 216.273438 129.441406 C 202.089844 129.441406 187.902344 134.847656 177.101562 145.660156 C 155.5 167.28125 155.5 202.46875 177.101562 224.089844 C 198.703125 245.714844 233.851562 245.714844 255.449219 224.089844 C 277.050781 202.46875 277.050781 167.28125 255.449219 145.660156 C 244.648438 134.847656 230.460938 129.441406 216.273438 129.441406 Z M 216.273438 129.441406 " fill-opacity="1" fill-rule="nonzero"/><path fill="#ffffff" d="M 279.078125 268.765625 C 275.210938 268.765625 271.347656 267.292969 268.402344 264.347656 L 260.410156 256.347656 C 258.832031 254.765625 258.832031 252.199219 260.410156 250.613281 C 261.992188 249.03125 264.558594 249.03125 266.140625 250.613281 L 274.132812 258.613281 C 276.859375 261.347656 281.296875 261.34375 284.023438 258.613281 L 293.871094 248.757812 C 296.597656 246.027344 296.597656 241.585938 293.871094 238.855469 L 285.011719 229.988281 C 283.433594 228.402344 283.433594 225.835938 285.011719 224.253906 C 286.59375 222.671875 289.160156 222.671875 290.738281 224.253906 L 299.597656 233.121094 C 305.484375 239.011719 305.484375 248.597656 299.597656 254.488281 L 289.75 264.347656 C 286.808594 267.292969 282.941406 268.765625 279.078125 268.765625 Z M 279.078125 268.765625 " fill-opacity="1" fill-rule="nonzero"/><path fill="#ffffff" d="M 68.238281 119.195312 L 40.757812 119.195312 C 35.734375 119.195312 31.644531 115.101562 31.644531 110.074219 L 31.644531 82.566406 C 31.644531 77.535156 35.734375 73.441406 40.757812 73.441406 L 68.238281 73.441406 C 73.261719 73.441406 77.347656 77.535156 77.347656 82.566406 L 77.347656 110.074219 C 77.347656 115.101562 73.261719 119.195312 68.238281 119.195312 Z M 40.757812 81.550781 C 40.210938 81.550781 39.746094 82.015625 39.746094 82.5625 L 39.746094 110.070312 C 39.746094 110.621094 40.210938 111.085938 40.757812 111.085938 L 68.238281 111.085938 C 68.785156 111.085938 69.25 110.621094 69.25 110.070312 L 69.25 82.5625 C 69.25 82.015625 68.785156 81.550781 68.238281 81.550781 Z M 40.757812 81.550781 " fill-opacity="1" fill-rule="nonzero"/><path fill="#ffffff" d="M 229.910156 89.152344 L 94.683594 89.152344 C 92.449219 89.152344 90.636719 87.335938 90.636719 85.097656 C 90.636719 82.859375 92.449219 81.042969 94.683594 81.042969 L 229.910156 81.042969 C 232.148438 81.042969 233.960938 82.859375 233.960938 85.097656 C 233.960938 87.335938 232.148438 89.152344 229.910156 89.152344 Z M 229.910156 89.152344 " fill-opacity="1" fill-rule="nonzero"/><path fill="#ffffff" d="M 136.75 111.59375 L 94.683594 111.59375 C 92.449219 111.59375 90.636719 109.777344 90.636719 107.539062 C 90.636719 105.300781 92.449219 103.484375 94.683594 103.484375 L 136.75 103.484375 C 138.988281 103.484375 140.800781 105.300781 140.800781 107.539062 C 140.800781 109.777344 138.988281 111.59375 136.75 111.59375 Z M 136.75 111.59375 " fill-opacity="1" fill-rule="nonzero"/><path fill="#ffffff" d="M 68.238281 180.726562 L 40.757812 180.726562 C 35.734375 180.726562 31.644531 176.632812 31.644531 171.605469 L 31.644531 144.09375 C 31.644531 139.066406 35.734375 134.972656 40.757812 134.972656 L 68.238281 134.972656 C 73.261719 134.972656 77.347656 139.066406 77.347656 144.09375 L 77.347656 171.605469 C 77.347656 176.632812 73.261719 180.726562 68.238281 180.726562 Z M 40.757812 143.082031 C 40.210938 143.082031 39.746094 143.546875 39.746094 144.09375 L 39.746094 171.605469 C 39.746094 172.152344 40.210938 172.617188 40.757812 172.617188 L 68.238281 172.617188 C 68.785156 172.617188 69.25 172.152344 69.25 171.605469 L 69.25 144.09375 C 69.25 143.546875 68.785156 143.082031 68.238281 143.082031 Z M 40.757812 143.082031 " fill-opacity="1" fill-rule="nonzero"/><path fill="#ffffff" d="M 123.332031 150.683594 L 94.683594 150.683594 C 92.449219 150.683594 90.636719 148.867188 90.636719 146.628906 C 90.636719 144.390625 92.449219 142.578125 94.683594 142.578125 L 123.332031 142.578125 C 125.566406 142.578125 127.378906 144.390625 127.378906 146.628906 C 127.378906 148.867188 125.566406 150.683594 123.332031 150.683594 Z M 123.332031 150.683594 " fill-opacity="1" fill-rule="nonzero"/><path fill="#ffffff" d="M 118.667969 173.125 L 94.683594 173.125 C 92.449219 173.125 90.636719 171.308594 90.636719 169.070312 C 90.636719 166.832031 92.449219 165.015625 94.683594 165.015625 L 118.667969 165.015625 C 120.902344 165.015625 122.71875 166.832031 122.71875 169.070312 C 122.71875 171.308594 120.902344 173.125 118.667969 173.125 Z M 118.667969 173.125 " fill-opacity="1" fill-rule="nonzero"/><path fill="#ffffff" d="M 68.238281 242.257812 L 40.757812 242.257812 C 35.734375 242.257812 31.644531 238.164062 31.644531 233.136719 L 31.644531 205.628906 C 31.644531 200.597656 35.734375 196.507812 40.757812 196.507812 L 68.238281 196.507812 C 73.261719 196.507812 77.347656 200.597656 77.347656 205.628906 L 77.347656 233.136719 C 77.347656 238.164062 73.261719 242.257812 68.238281 242.257812 Z M 40.757812 204.613281 C 40.210938 204.613281 39.746094 205.078125 39.746094 205.628906 L 39.746094 233.136719 C 39.746094 233.683594 40.210938 234.148438 40.757812 234.148438 L 68.238281 234.148438 C 68.785156 234.148438 69.25 233.683594 69.25 233.136719 L 69.25 205.628906 C 69.25 205.078125 68.785156 204.613281 68.238281 204.613281 Z M 40.757812 204.613281 " fill-opacity="1" fill-rule="nonzero"/><path fill="#ffffff" d="M 119.75 212.214844 L 94.683594 212.214844 C 92.449219 212.214844 90.636719 210.402344 90.636719 208.160156 C 90.636719 205.921875 92.449219 204.109375 94.683594 204.109375 L 119.75 204.109375 C 121.984375 204.109375 123.796875 205.921875 123.796875 208.160156 C 123.796875 210.402344 121.984375 212.214844 119.75 212.214844 Z M 119.75 212.214844 " fill-opacity="1" fill-rule="nonzero"/><path fill="#ffffff" d="M 125.957031 234.65625 L 94.683594 234.65625 C 92.449219 234.65625 90.636719 232.84375 90.636719 230.601562 C 90.636719 228.363281 92.449219 226.546875 94.683594 226.546875 L 125.957031 226.546875 C 128.191406 226.546875 130.003906 228.363281 130.003906 230.601562 C 130.003906 232.84375 128.191406 234.65625 125.957031 234.65625 Z M 125.957031 234.65625 " fill-opacity="1" fill-rule="nonzero"/><path fill="#ffffff" d="M 68.238281 303.789062 L 40.757812 303.789062 C 35.734375 303.789062 31.644531 299.699219 31.644531 294.667969 L 31.644531 267.160156 C 31.644531 262.128906 35.734375 258.039062 40.757812 258.039062 L 68.238281 258.039062 C 73.261719 258.039062 77.347656 262.128906 77.347656 267.160156 L 77.347656 294.667969 C 77.347656 299.699219 73.261719 303.789062 68.238281 303.789062 Z M 40.757812 266.144531 C 40.210938 266.144531 39.746094 266.609375 39.746094 267.160156 L 39.746094 294.667969 C 39.746094 295.21875 40.210938 295.683594 40.757812 295.683594 L 68.238281 295.683594 C 68.785156 295.683594 69.25 295.21875 69.25 294.667969 L 69.25 267.160156 C 69.25 266.609375 68.785156 266.144531 68.238281 266.144531 Z M 40.757812 266.144531 " fill-opacity="1" fill-rule="nonzero"/><path fill="#ffffff" d="M 157.226562 273.746094 L 94.683594 273.746094 C 92.449219 273.746094 90.636719 271.933594 90.636719 269.691406 C 90.636719 267.453125 92.449219 265.640625 94.683594 265.640625 L 157.226562 265.640625 C 159.460938 265.640625 161.277344 267.453125 161.277344 269.691406 C 161.277344 271.933594 159.460938 273.746094 157.226562 273.746094 Z M 157.226562 273.746094 " fill-opacity="1" fill-rule="nonzero"/><path fill="#ffffff" d="M 196.648438 296.1875 L 94.683594 296.1875 C 92.449219 296.1875 90.636719 294.375 90.636719 292.132812 C 90.636719 289.894531 92.449219 288.082031 94.683594 288.082031 L 196.648438 288.082031 C 198.882812 288.082031 200.695312 289.894531 200.695312 292.132812 C 200.695312 294.375 198.882812 296.1875 196.648438 296.1875 Z M 196.648438 296.1875 " fill-opacity="1" fill-rule="nonzero"/><g clip-path="url(#bb326bc27b)"><path fill="#ffffff" d="M 240.273438 339.757812 L 25.335938 339.757812 C 12.679688 339.757812 2.386719 330.210938 2.386719 318.476562 L 2.386719 58.753906 C 2.386719 47.023438 12.679688 37.476562 25.335938 37.476562 L 240.273438 37.476562 C 252.929688 37.476562 263.222656 47.023438 263.222656 58.753906 L 263.222656 113.625 C 263.222656 115.863281 261.414062 117.675781 259.175781 117.675781 C 256.9375 117.675781 255.125 115.863281 255.125 113.625 L 255.125 58.753906 C 255.125 51.492188 248.464844 45.582031 240.273438 45.582031 L 25.335938 45.582031 C 17.144531 45.582031 10.484375 51.492188 10.484375 58.753906 L 10.484375 318.476562 C 10.484375 325.742188 17.144531 331.648438 25.335938 331.648438 L 240.273438 331.648438 C 248.464844 331.648438 255.125 325.742188 255.125 318.476562 L 255.125 256.125 C 255.125 253.886719 256.9375 252.074219 259.175781 252.074219 C 261.414062 252.074219 263.222656 253.886719 263.222656 256.125 L 263.222656 318.476562 C 263.222656 330.210938 252.929688 339.757812 240.273438 339.757812 Z M 240.273438 339.757812 " fill-opacity="1" fill-rule="nonzero"/></g><path fill="#ffffff" d="M 205.710938 216.535156 C 201.53125 216.535156 197.609375 214.914062 194.667969 211.964844 L 183.757812 201.046875 C 177.671875 194.953125 177.671875 185.035156 183.757812 178.9375 C 186.703125 175.992188 190.625 174.367188 194.800781 174.367188 C 198.917969 174.367188 202.78125 175.941406 205.710938 178.800781 L 226.703125 157.785156 C 229.648438 154.835938 233.570312 153.214844 237.75 153.214844 C 241.925781 153.214844 245.847656 154.835938 248.792969 157.785156 C 251.734375 160.730469 253.359375 164.65625 253.359375 168.839844 C 253.359375 173.019531 251.734375 176.945312 248.792969 179.894531 L 216.753906 211.964844 C 213.808594 214.914062 209.886719 216.535156 205.710938 216.535156 Z M 194.804688 182.476562 C 192.789062 182.476562 190.902344 183.253906 189.484375 184.671875 C 186.554688 187.605469 186.554688 192.378906 189.484375 195.316406 L 200.394531 206.234375 C 201.808594 207.648438 203.695312 208.429688 205.710938 208.429688 C 207.722656 208.429688 209.613281 207.648438 211.027344 206.234375 L 243.066406 174.160156 C 244.480469 172.746094 245.257812 170.855469 245.257812 168.839844 C 245.257812 166.824219 244.480469 164.933594 243.066406 163.515625 C 241.652344 162.101562 239.761719 161.320312 237.75 161.320312 C 235.734375 161.320312 233.847656 162.101562 232.433594 163.515625 L 208.574219 187.402344 C 207.8125 188.160156 206.785156 188.585938 205.710938 188.585938 C 204.636719 188.585938 203.605469 188.160156 202.84375 187.402344 L 200.117188 184.671875 C 198.707031 183.253906 196.816406 182.476562 194.804688 182.476562 Z M 194.804688 182.476562 " fill-opacity="1" fill-rule="nonzero"/></svg>