<svg xmlns="http://www.w3.org/2000/svg" xmlns:xlink="http://www.w3.org/1999/xlink" width="500" zoomAndPan="magnify" viewBox="0 0 375 374.999991" height="500" preserveAspectRatio="xMidYMid meet" version="1.0"><defs><clipPath id="49c4dff6f7"><path d="M 0 166 L 210 166 L 210 374.925781 L 0 374.925781 Z M 0 166 " clip-rule="nonzero"/></clipPath></defs><rect x="-37.5" width="450" fill="#ffffff" y="-37.499999" height="449.999989" fill-opacity="1"/><rect x="-37.5" width="450" fill="#ffffff" y="-37.499999" height="449.999989" fill-opacity="1"/><g clip-path="url(#49c4dff6f7)"><path fill="#ffffff" d="M 28.964844 253.3125 C 30.695312 252.746094 31.828125 251.046875 32.394531 249.351562 C 34.089844 243.65625 36.355469 238.53125 38.617188 233.4375 C 39.785156 231.738281 39.785156 230.007812 38.617188 228.308594 L 31.261719 211.265625 L 46.007812 197.046875 L 63.054688 204.4375 C 64.785156 205.003906 66.484375 205.003906 68.183594 204.4375 C 73.308594 201.609375 78.402344 199.34375 84.09375 198.214844 C 85.792969 197.648438 86.925781 196.480469 88.058594 194.785156 L 94.882812 177.171875 L 115.921875 177.171875 L 122.746094 194.785156 C 123.3125 196.480469 125.011719 197.648438 126.710938 198.214844 C 132.402344 199.910156 137.496094 202.175781 142.621094 204.4375 C 144.320312 205.605469 146.019531 205.605469 147.714844 204.4375 L 164.761719 197.046875 L 179.542969 211.828125 L 172.152344 228.875 C 171.585938 230.574219 171.585938 232.304688 172.152344 234.003906 C 174.980469 238.53125 177.28125 244.222656 178.410156 249.914062 C 178.976562 251.613281 180.109375 252.746094 181.808594 253.878906 L 199.453125 260.703125 L 199.453125 281.710938 L 181.808594 288.535156 C 180.109375 289.101562 178.976562 290.832031 178.410156 292.527344 C 176.714844 298.1875 174.449219 303.316406 172.152344 308.441406 C 171.019531 310.140625 171.019531 311.839844 172.152344 313.535156 L 179.542969 330.582031 L 164.195312 344.796875 L 147.148438 337.40625 C 145.453125 336.839844 143.753906 336.839844 142.054688 337.40625 C 136.929688 340.238281 131.835938 342.535156 126.144531 343.664062 C 124.445312 344.230469 123.28125 345.363281 122.148438 347.0625 L 115.324219 364.671875 L 94.316406 364.671875 L 88.058594 347.0625 C 87.492188 345.363281 85.792969 344.230469 84.09375 343.664062 C 78.96875 341.933594 73.308594 340.238281 68.183594 337.40625 C 66.484375 336.273438 64.785156 336.273438 63.054688 337.40625 L 46.007812 344.796875 L 31.261719 330.015625 L 38.617188 312.96875 C 39.21875 311.273438 39.21875 309.574219 38.617188 307.84375 C 35.789062 303.316406 33.523438 297.621094 32.394531 291.964844 C 31.828125 290.230469 30.695312 289.101562 28.964844 287.96875 L 11.351562 281.144531 L 11.351562 260.136719 Z M 3.394531 251.613281 C 1.132812 252.746094 0 254.441406 0 256.742188 L 0 285.136719 C 0 287.402344 1.132812 289.667969 3.394531 290.265625 L 21.574219 297.621094 C 23.304688 302.183594 25.003906 306.746094 26.699219 310.707031 L 18.742188 328.882812 C 17.613281 331.148438 18.175781 333.445312 19.875 335.144531 L 39.785156 355.019531 C 41.480469 356.714844 43.746094 357.28125 46.007812 356.148438 L 64.21875 348.191406 C 68.183594 350.492188 72.742188 352.1875 77.269531 353.320312 L 84.660156 371.496094 C 85.792969 373.761719 87.492188 374.925781 89.789062 374.925781 L 118.1875 374.925781 C 120.449219 374.925781 122.746094 373.761719 123.3125 371.496094 L 130.703125 353.320312 C 135.230469 351.621094 139.792969 349.925781 143.753906 348.191406 L 161.933594 356.148438 C 164.230469 357.28125 166.492188 356.714844 168.191406 355.019531 L 188.066406 335.144531 C 189.796875 333.445312 190.363281 331.148438 189.199219 328.882812 L 182.972656 310.707031 C 185.234375 306.710938 186.933594 302.183594 188.066406 297.621094 L 206.242188 290.230469 C 208.539062 289.101562 209.640625 287.402344 209.640625 285.136719 L 209.640625 256.707031 C 209.640625 254.441406 208.539062 252.179688 206.242188 251.613281 L 188.066406 244.222656 C 186.367188 239.660156 184.671875 235.132812 182.972656 231.140625 L 190.929688 212.960938 C 192.027344 210.699219 191.496094 208.433594 189.765625 206.703125 L 169.886719 186.828125 C 168.191406 185.128906 165.925781 184.5625 163.628906 185.695312 L 144.886719 193.085938 C 140.890625 190.824219 136.363281 189.125 131.835938 187.960938 L 124.445312 169.78125 C 123.3125 167.519531 121.582031 166.386719 119.316406 166.386719 L 90.921875 166.386719 C 88.625 166.386719 86.359375 167.519531 85.792969 169.78125 L 78.402344 187.960938 C 73.875 189.125 69.878906 191.386719 65.351562 193.085938 L 47.140625 185.128906 C 44.878906 183.996094 42.613281 184.5625 40.914062 186.261719 L 21.007812 206.171875 C 19.308594 207.867188 18.742188 210.132812 19.875 212.394531 L 27.265625 231.140625 C 25.003906 235.132812 23.304688 239.695312 22.171875 244.222656 L 3.394531 251.613281 " fill-opacity="1" fill-rule="nonzero"/></g><path fill="#ffffff" d="M 105.101562 240.226562 C 122.148438 240.226562 135.796875 253.878906 135.796875 270.921875 C 135.796875 287.96875 122.148438 301.617188 105.101562 301.617188 C 88.058594 301.617188 74.441406 287.96875 74.441406 270.921875 C 74.441406 253.878906 88.058594 240.226562 105.101562 240.226562 Z M 105.101562 312.96875 C 128.40625 312.96875 147.148438 294.226562 147.148438 270.921875 C 147.148438 247.617188 128.40625 228.875 105.101562 228.875 C 81.832031 228.875 63.054688 247.617188 63.054688 270.921875 C 63.054688 294.226562 81.832031 312.96875 105.101562 312.96875 " fill-opacity="1" fill-rule="nonzero"/><path fill="#ffffff" d="M 128.972656 71.503906 C 130.671875 70.9375 131.835938 69.207031 132.402344 67.507812 C 133.535156 63.546875 135.230469 59.550781 137.496094 55.589844 C 138.628906 53.894531 138.628906 52.160156 137.496094 50.464844 L 132.402344 37.980469 L 142.621094 27.757812 L 155.105469 32.851562 C 156.804688 33.417969 158.535156 33.417969 160.234375 32.851562 C 164.195312 30.589844 168.191406 28.890625 172.152344 27.757812 C 173.285156 27.726562 174.449219 26.59375 175.582031 24.894531 L 180.675781 12.410156 L 194.890625 12.410156 L 200.019531 24.894531 C 200.550781 26.59375 201.714844 27.726562 203.414062 28.324219 C 207.410156 29.457031 211.371094 31.15625 215.332031 33.417969 C 217.0625 34.550781 218.761719 34.550781 220.457031 33.417969 L 232.976562 28.324219 L 242.632812 37.980469 L 237.503906 50.464844 C 236.9375 52.160156 236.9375 53.894531 238.070312 55.589844 C 240.335938 58.988281 241.5 62.980469 243.164062 67.507812 C 243.761719 69.207031 244.894531 70.371094 246.59375 71.503906 L 259.109375 76.597656 L 259.109375 90.8125 L 246.59375 95.941406 C 244.894531 96.507812 243.761719 98.203125 243.164062 99.902344 C 242.066406 103.898438 240.335938 107.859375 238.070312 111.820312 C 236.9375 113.550781 236.9375 115.25 237.503906 116.949219 L 242.632812 129.433594 L 232.410156 139.6875 L 219.894531 134.558594 C 218.195312 133.992188 216.496094 133.992188 214.800781 134.558594 C 210.804688 136.824219 207.410156 138.554688 202.847656 139.6875 C 201.148438 140.253906 200.019531 141.382812 198.886719 143.082031 L 193.757812 155.601562 L 179.542969 155.601562 L 174.449219 143.082031 C 173.882812 141.382812 172.152344 140.253906 170.453125 139.6875 C 166.492188 138.554688 162.496094 136.824219 158.535156 134.558594 C 156.839844 133.425781 155.105469 133.425781 153.410156 134.558594 L 140.925781 139.6875 L 130.703125 129.433594 L 135.796875 116.949219 C 136.363281 115.25 136.363281 113.550781 135.796875 111.820312 C 133.535156 108.425781 132.402344 104.464844 130.703125 99.902344 C 130.105469 98.203125 128.972656 97.074219 127.273438 95.941406 L 116.488281 90.246094 L 116.488281 76.03125 Z M 108.53125 66.941406 C 106.269531 68.074219 105.101562 69.773438 105.101562 72.070312 L 105.101562 94.210938 C 105.101562 96.507812 106.269531 98.769531 108.53125 99.335938 L 122.148438 105.027344 C 123.3125 108.425781 124.445312 111.253906 126.144531 114.117188 L 120.449219 127.734375 C 119.316406 130.03125 119.882812 132.296875 121.582031 133.992188 L 136.929688 149.339844 C 138.628906 151.039062 140.890625 151.605469 143.1875 150.472656 L 156.804688 144.78125 C 159.667969 146.511719 162.496094 147.644531 165.925781 148.773438 L 171.585938 162.390625 C 172.71875 164.6875 174.449219 165.820312 176.714844 165.820312 L 198.886719 165.820312 C 201.148438 165.820312 203.414062 164.6875 203.980469 162.390625 L 209.671875 148.773438 C 213.066406 147.644531 215.929688 146.511719 218.761719 144.78125 L 232.410156 150.472656 C 234.675781 151.605469 236.9375 151.039062 238.636719 149.339844 L 253.984375 133.992188 C 255.683594 132.296875 256.246094 130.03125 255.117188 127.734375 L 249.457031 114.117188 C 251.152344 111.253906 252.285156 108.425781 253.417969 105.027344 L 267.066406 99.335938 C 269.332031 98.203125 270.464844 96.507812 270.464844 94.210938 L 270.464844 72.070312 C 270.464844 69.773438 269.332031 67.507812 267.066406 66.941406 L 253.417969 61.25 C 252.285156 57.855469 251.152344 55.023438 249.457031 52.160156 L 255.117188 38.546875 C 256.246094 36.25 255.683594 33.984375 253.984375 32.285156 L 238.636719 16.9375 C 236.9375 15.242188 234.675781 14.675781 232.410156 15.808594 L 218.761719 21.5 C 215.929688 19.800781 213.066406 18.636719 209.671875 17.503906 L 203.980469 3.886719 C 202.847656 1.589844 201.148438 0.460938 198.886719 0.460938 L 176.714844 0.460938 C 174.449219 0.460938 172.152344 1.589844 171.585938 3.886719 L 165.925781 17.503906 C 163.0625 18.636719 159.667969 19.800781 156.804688 21.5 L 143.1875 15.808594 C 140.890625 14.675781 138.628906 15.242188 136.929688 16.9375 L 121.582031 32.285156 C 119.882812 33.984375 119.316406 36.25 120.449219 38.546875 L 126.144531 52.160156 C 124.445312 55.023438 123.3125 57.855469 122.148438 61.25 L 108.53125 66.941406 " fill-opacity="1" fill-rule="nonzero"/><path fill="#ffffff" d="M 187.5 61.285156 C 200.019531 61.285156 209.640625 71.503906 209.640625 83.421875 C 209.640625 95.375 199.453125 105.59375 187.5 105.59375 C 175.015625 105.59375 165.328125 95.375 165.328125 83.421875 C 165.328125 71.503906 175.015625 61.285156 187.5 61.285156 Z M 187.5 116.949219 C 206.242188 116.949219 221.023438 101.601562 221.023438 83.421875 C 221.023438 65.246094 205.675781 49.898438 187.5 49.898438 C 168.757812 49.898438 153.976562 65.246094 153.976562 83.421875 C 153.976562 101.601562 168.757812 116.949219 187.5 116.949219 " fill-opacity="1" fill-rule="nonzero"/><path fill="#ffffff" d="M 363.648438 225.480469 L 351.730469 230.007812 C 349.996094 230.574219 348.867188 232.269531 348.300781 234.003906 C 347.167969 237.964844 345.4375 241.957031 343.773438 245.355469 C 342.605469 247.050781 342.605469 248.75 343.773438 250.480469 L 348.867188 262.398438 L 339.777344 272.054688 L 327.859375 266.929688 C 326.128906 266.363281 324.429688 266.363281 322.730469 266.929688 C 319.335938 269.226562 315.339844 270.355469 311.347656 271.488281 C 309.679688 272.054688 308.515625 273.1875 307.382812 274.882812 L 302.824219 286.835938 L 289.773438 286.835938 L 285.246094 274.882812 C 284.679688 273.1875 282.949219 272.054688 281.25 271.488281 C 277.253906 270.355469 273.859375 268.660156 269.863281 266.929688 C 268.199219 265.796875 266.46875 265.796875 264.769531 266.929688 L 252.820312 271.488281 L 243.730469 261.835938 L 248.855469 249.914062 C 249.421875 248.183594 249.421875 246.488281 248.855469 244.789062 C 247.160156 241.394531 245.460938 237.398438 244.296875 233.4375 C 243.730469 231.703125 242.632812 230.574219 240.898438 229.441406 L 228.414062 225.480469 L 228.414062 212.394531 L 240.335938 207.867188 C 242.066406 207.269531 243.164062 205.570312 243.730469 203.871094 C 244.863281 199.910156 246.59375 195.917969 248.289062 192.519531 C 249.421875 190.824219 249.421875 189.089844 248.289062 187.394531 L 243.164062 175.476562 L 252.253906 165.820312 L 264.203125 170.914062 C 265.902344 171.480469 267.632812 171.480469 269.296875 170.914062 C 272.726562 168.648438 276.722656 167.519531 280.683594 166.386719 C 282.382812 165.820312 283.515625 164.6875 284.679688 162.957031 L 289.207031 151.039062 L 302.289062 151.039062 L 306.816406 162.957031 C 307.382812 164.6875 309.082031 165.820312 310.8125 166.386719 C 314.773438 167.519531 318.769531 169.214844 322.164062 170.914062 C 323.863281 172.078125 325.5625 172.078125 327.292969 170.914062 L 339.210938 165.820312 L 348.300781 175.476562 L 343.773438 187.394531 C 343.171875 189.089844 343.171875 190.824219 343.773438 192.519531 C 345.4375 195.917969 347.167969 199.910156 348.300781 203.871094 C 348.867188 205.570312 349.996094 206.703125 351.730469 207.867188 L 363.648438 212.394531 Z M 371.570312 202.742188 L 358.519531 197.613281 C 357.386719 194.785156 356.257812 191.953125 355.089844 189.089844 L 360.816406 176.605469 C 361.949219 174.34375 361.382812 172.046875 359.652344 170.347656 L 344.902344 155.566406 C 343.171875 153.867188 340.910156 153.300781 338.644531 154.433594 L 326.128906 160.128906 C 323.296875 158.996094 320.433594 157.863281 317.605469 156.730469 L 312.476562 143.648438 C 311.347656 141.382812 309.648438 140.253906 307.382812 140.253906 L 286.34375 140.253906 C 284.078125 140.253906 281.816406 141.382812 281.25 143.648438 L 276.121094 156.730469 C 273.292969 157.863281 270.429688 158.996094 267.601562 160.128906 L 254.550781 154.433594 C 252.253906 153.300781 249.988281 153.867188 248.289062 155.566406 L 233.507812 170.347656 C 231.8125 172.046875 231.246094 174.34375 232.378906 176.605469 L 238.070312 189.089844 C 236.90625 191.953125 235.773438 194.785156 234.640625 197.613281 L 220.457031 202.742188 C 218.160156 203.871094 217.0625 205.570312 217.0625 207.867188 L 217.0625 228.875 C 217.0625 231.140625 218.160156 233.4375 220.457031 234.003906 L 233.542969 239.097656 C 234.640625 241.957031 235.773438 244.789062 236.9375 247.617188 L 231.246094 260.136719 C 230.113281 262.398438 230.679688 264.664062 232.378906 266.394531 L 247.160156 281.144531 C 248.855469 282.839844 251.152344 283.441406 253.382812 282.273438 L 265.902344 276.617188 C 268.730469 277.746094 271.59375 278.878906 274.425781 280.011719 L 279.550781 293.09375 C 280.683594 295.359375 282.382812 296.492188 284.679688 296.492188 L 305.6875 296.492188 C 307.949219 296.492188 310.246094 295.359375 310.8125 293.09375 L 315.90625 280.011719 C 318.769531 278.878906 321.601562 277.746094 324.429688 276.617188 L 336.914062 282.273438 C 339.210938 283.441406 341.476562 282.839844 343.207031 281.144531 L 357.953125 266.394531 C 359.652344 264.664062 360.25 262.398438 359.085938 260.136719 L 355.089844 248.183594 C 356.257812 245.355469 357.386719 242.523438 358.519531 239.660156 L 371.570312 234.566406 C 373.867188 233.4375 375 231.703125 375 229.441406 L 375 208.433594 C 375 206.136719 373.867188 203.871094 371.570312 202.742188 " fill-opacity="1" fill-rule="nonzero"/><path fill="#ffffff" d="M 296.03125 239.660156 C 284.679688 239.660156 274.992188 230.007812 274.992188 218.65625 C 274.992188 207.300781 284.679688 197.613281 296.03125 197.613281 C 307.382812 197.613281 317.039062 207.300781 317.039062 218.65625 C 317.039062 230.007812 307.382812 239.660156 296.03125 239.660156 Z M 296.03125 186.261719 C 278.421875 186.261719 263.636719 201.042969 263.636719 218.65625 C 263.636719 236.265625 278.421875 251.046875 296.03125 251.046875 C 313.644531 251.046875 328.390625 236.265625 328.390625 218.65625 C 328.390625 201.042969 313.644531 186.261719 296.03125 186.261719 " fill-opacity="1" fill-rule="nonzero"/></svg>